<svg width="1575" height="226" viewBox="0 0 1575 226" fill="none" xmlns="http://www.w3.org/2000/svg">
<path d="M1567.88 93.0514H1516.88L1514.28 108.251H1560.28L1553.88 144.251H1507.88L1505.08 159.851H1557.08L1550.68 196.651H1458.68L1483.28 56.6514H1574.28L1567.88 93.0514Z" fill="white"/>
<path d="M1322.74 196.651L1347.34 56.6514H1379.34L1411.54 123.851L1423.34 56.6514H1463.34L1438.74 196.651H1406.74L1374.54 129.451L1362.74 196.651H1322.74Z" fill="white"/>
<path d="M1287.38 56.6514H1327.38L1302.78 196.651H1262.78L1287.38 56.6514Z" fill="white"/>
<path d="M1227.4 56.6514H1267.4L1242.8 196.651H1202.8L1211.8 145.051H1177.8L1168.8 196.651H1128.8L1153.4 56.6514H1193.4L1184.6 106.251H1218.6L1227.4 56.6514Z" fill="white"/>
<path d="M1059.36 199.851C1037.63 199.851 1020.76 192.718 1008.76 178.451C996.896 164.185 992.696 146.251 996.163 124.651C999.496 103.851 1008.9 86.7845 1024.36 73.4512C1039.96 60.1178 1058.03 53.4512 1078.56 53.4512C1106.03 53.4512 1125.7 64.9178 1137.56 87.8512L1100.96 107.251C1095.5 97.5178 1086.83 92.6512 1074.96 92.6512C1065.36 92.6512 1056.9 95.8512 1049.56 102.251C1042.23 108.651 1037.7 116.785 1035.96 126.651C1034.36 136.118 1035.96 144.185 1040.76 150.851C1045.56 157.385 1052.76 160.651 1062.36 160.651C1073.43 160.651 1082.96 155.451 1090.96 145.051L1124.16 166.051C1116.96 176.718 1107.7 185.051 1096.36 191.051C1085.16 196.918 1072.83 199.851 1059.36 199.851Z" fill="white"/>
<path d="M944.786 196.651L943.186 178.651H902.786L894.786 196.651H850.586L919.786 56.6514H966.586L986.586 196.651H944.786ZM916.986 146.651H940.186L936.186 103.651L916.986 146.651Z" fill="white"/>
<path d="M867.171 56.6514L842.571 196.651H802.571L814.371 129.251L775.171 180.851H771.571L748.771 126.651L736.571 196.651H696.571L721.171 56.6514H761.171L782.171 114.051L825.171 56.6514H867.171Z" fill="white"/>
<path d="M661.959 95.4514H614.959L611.759 113.651H657.759L650.959 152.451H604.959L597.159 196.651H557.159L581.759 56.6514H668.759L661.959 95.4514Z" fill="#CFCFCF"/>
<path d="M507.328 196.651L505.728 178.651H465.328L457.328 196.651H413.128L482.328 56.6514H529.128L549.128 196.651H507.328ZM479.528 146.651H502.728L498.728 103.651L479.528 146.651Z" fill="#CFCFCF"/>
<path d="M429.712 56.6514L405.112 196.651H365.112L376.912 129.251L337.712 180.851H334.112L311.312 126.651L299.112 196.651H259.112L283.712 56.6514H323.712L344.712 114.051L387.712 56.6514H429.712Z" fill="#CFCFCF"/>
<path d="M210.611 119.529L105.116 225.024L52.3682 172.276L52.5578 172.086L0 119.529L56.6891 62.8398L105.305 111.456L153.922 62.8398L210.611 119.529Z" fill="url(#paint0_linear_34_276)"/>
<g opacity="0.7">
<path d="M138.681 43.9499L105.245 77.3855L88.5277 60.6677L88.5878 60.6075L71.9302 43.9499L89.8972 25.9829L105.306 41.3913L120.714 25.9829L138.681 43.9499Z" fill="url(#paint1_linear_34_276)"/>
</g>
<g opacity="0.4">
<path d="M119.652 7.72337L105.28 22.0961L98.0932 14.9097L98.119 14.8839L90.9585 7.72337L98.6819 0L105.305 6.62352L111.929 0L119.652 7.72337Z" fill="url(#paint2_linear_34_276)"/>
</g>
<defs>
<linearGradient id="paint0_linear_34_276" x1="105.305" y1="62.8398" x2="105.305" y2="225.024" gradientUnits="userSpaceOnUse">
<stop stop-color="#FF5B45"/>
<stop offset="1" stop-color="#CF40C5"/>
</linearGradient>
<linearGradient id="paint1_linear_34_276" x1="105.306" y1="25.9829" x2="105.306" y2="77.3855" gradientUnits="userSpaceOnUse">
<stop stop-color="#FF5B45"/>
<stop offset="1" stop-color="#CF40C5"/>
</linearGradient>
<linearGradient id="paint2_linear_34_276" x1="105.305" y1="0" x2="105.305" y2="22.0961" gradientUnits="userSpaceOnUse">
<stop stop-color="#FF5B45"/>
<stop offset="1" stop-color="#CF40C5"/>
</linearGradient>
</defs>
</svg>
